<?xml version="1.0" encoding="utf-8"?>
<!-- Generator: Adobe Illustrator 19.1.0, SVG Export Plug-In . SVG Version: 6.00 Build 0)  -->
<svg version="1.1" id="Ebene_3" xmlns="http://www.w3.org/2000/svg" xmlns:xlink="http://www.w3.org/1999/xlink" x="0px" y="0px"
	 viewBox="0 0 1500 392" style="enable-background:new 0 0 1500 392;" xml:space="preserve">
<style type="text/css">
	.st0{fill:#FFFFFF;}
</style>
<rect width="1500" height="392"/>
<path class="st0" d="M105.08,110.52h133.44v37.53h-79.23v30.5h67.67v35.27h-67.67v71.36h-54.21V110.52z"/>
<path class="st0" d="M263.91,285.18V110.52h89.95c16.68,0,29.43,1.43,38.24,4.29c8.82,2.86,15.92,8.16,21.33,15.9
	c5.4,7.74,8.1,17.18,8.1,28.3c0,9.69-2.07,18.05-6.2,25.08c-4.13,7.03-9.82,12.73-17.05,17.1c-4.61,2.78-10.93,5.08-18.95,6.91
	c6.43,2.15,11.11,4.29,14.05,6.44c1.98,1.43,4.86,4.49,8.63,9.18c3.77,4.69,6.29,8.31,7.56,10.85l26.14,50.61h-60.98l-28.85-53.37
	c-3.65-6.91-6.91-11.4-9.77-13.46c-3.89-2.7-8.3-4.05-13.22-4.05h-4.77v70.89H263.91z M318.12,181.29h22.76
	c2.46,0,7.23-0.79,14.3-2.38c3.57-0.71,6.49-2.54,8.76-5.48c2.26-2.94,3.4-6.31,3.4-10.13c0-5.64-1.79-9.97-5.36-12.99
	c-3.57-3.02-10.29-4.53-20.13-4.53h-23.71V181.29z"/>
<path class="st0" d="M448.48,110.52h144.64v37.29h-90.55v27.76h83.99v35.62h-83.99v34.43h93.17v39.55H448.48V110.52z"/>
<path class="st0" d="M622.55,110.52h54.09v174.66h-54.09V110.52z"/>
<path class="st0" d="M698.7,110.52h164.06v43.13h-55.04v131.53h-53.97V153.65H698.7V110.52z"/>
<path class="st0" d="M1029.92,285.18H882.67v-39.55h93.17v-34.43h-83.99v-35.62h83.99v-27.76h-90.55v-37.29h144.63V285.18z"/>
<path class="st0" d="M1042.69,110.52h59.45l30.92,53.73l30.08-53.73h58.85l-54.36,84.59l59.49,90.07h-60.64l-34.49-56.11
	l-34.49,56.11h-60.28l60.25-91.02L1042.69,110.52z"/>
<path class="st0" d="M1227.73,110.52h164.05v43.13h-55.04v131.53h-53.97V153.65h-55.04V110.52z"/>
</svg>
